<?xml version="1.0" encoding="UTF-8"?>
<svg xmlns="http://www.w3.org/2000/svg" xmlns:xlink="http://www.w3.org/1999/xlink" width="17pt" height="17pt" viewBox="0 0 17 17" version="1.1">
<g id="surface1">
<path style=" stroke:none;fill-rule:nonzero;fill:rgb(0%,0%,0%);fill-opacity:1;" d="M 3.804688 14.875 L 0.28125 14.875 L 0.28125 4.945312 L 3.804688 4.945312 Z M 2.042969 3.589844 C 0.914062 3.589844 0 2.773438 0 1.785156 C 0 0.800781 0.914062 0 2.042969 0 C 3.167969 0 4.082031 0.800781 4.082031 1.785156 C 4.082031 2.773438 3.167969 3.589844 2.042969 3.589844 Z M 16.996094 14.875 L 13.480469 14.875 L 13.480469 10.039062 C 13.480469 8.886719 13.453125 7.410156 11.648438 7.410156 C 9.816406 7.410156 9.535156 8.664062 9.535156 9.957031 L 9.535156 14.875 L 6.011719 14.875 L 6.011719 4.945312 L 9.394531 4.945312 L 9.394531 6.296875 L 9.441406 6.296875 C 9.914062 5.519531 11.0625 4.695312 12.777344 4.695312 C 16.34375 4.695312 17 6.75 17 9.417969 L 17 14.875 Z M 16.996094 14.875 "/>
</g>
</svg>
