<?xml version="1.0" encoding="UTF-8"?>
<svg xmlns="http://www.w3.org/2000/svg" xmlns:xlink="http://www.w3.org/1999/xlink" width="17pt" height="16pt" viewBox="0 0 17 16" version="1.1">
<g>
<path style=" stroke:none;fill-rule:nonzero;fill:rgb(0%,0%,0%);fill-opacity:1;" d="M 15.253906 4.742188 C 15.261719 4.882812 15.261719 5.027344 15.261719 5.167969 C 15.261719 9.503906 11.757812 14.496094 5.351562 14.496094 C 3.375 14.496094 1.542969 13.960938 0 13.027344 C 0.28125 13.054688 0.550781 13.066406 0.839844 13.066406 C 2.46875 13.066406 3.96875 12.546875 5.167969 11.664062 C 3.636719 11.632812 2.351562 10.691406 1.910156 9.390625 C 2.125 9.421875 2.339844 9.441406 2.566406 9.441406 C 2.878906 9.441406 3.191406 9.402344 3.484375 9.328125 C 1.886719 9.023438 0.691406 7.707031 0.691406 6.113281 L 0.691406 6.070312 C 1.152344 6.316406 1.695312 6.46875 2.265625 6.488281 C 1.328125 5.898438 0.710938 4.894531 0.710938 3.757812 C 0.710938 3.148438 0.882812 2.589844 1.1875 2.101562 C 2.902344 4.089844 5.480469 5.390625 8.371094 5.53125 C 8.316406 5.289062 8.285156 5.035156 8.285156 4.78125 C 8.285156 2.976562 9.835938 1.503906 11.769531 1.503906 C 12.773438 1.503906 13.675781 1.898438 14.3125 2.539062 C 15.101562 2.394531 15.855469 2.121094 16.523438 1.746094 C 16.265625 2.507812 15.714844 3.148438 14.992188 3.554688 C 15.695312 3.480469 16.375 3.300781 17 3.046875 C 16.527344 3.695312 15.933594 4.273438 15.253906 4.742188 Z M 15.253906 4.742188 "/>
</g>
</svg>
